<?xml version="1.0" encoding="utf-8"?>
<svg xmlns="http://www.w3.org/2000/svg" viewBox="0 0 500 500">
  <ellipse style="stroke-opacity: 0; stroke: rgb(105, 161, 66); fill: rgb(105, 160, 67);" cx="250.623" cy="250.604" rx="238.617" ry="238.617">
    <title>Background</title>
  </ellipse>
  <path fill-rule="nonzero" fill-opacity="1" d="M 253.313 486.494 L 195.323 480.486 C 196.914 479.857 198.447 479.054 200.023 478.367 C 203.882 476.651 207.586 475.047 211.025 472.528 C 227.021 460.848 235.426 442.757 240.018 424.036 C 244.203 406.975 245.508 389.4 245.594 371.881 C 245.606 370.106 244.964 360.603 245.72 359.572 L 246.984 357.911 C 245.995 357.397 244.787 357.109 243.733 356.709 C 242.32 356.194 240.923 355.506 239.537 354.876 C 233.274 352.13 226.896 347.893 221.892 343.198 C 211.88 333.752 203.783 319.496 203.394 305.469 C 200.91 305.24 198.391 305.355 195.901 305.355 C 191.84 305.355 187.782 305.355 183.724 305.355 C 182.48 305.355 181.233 305.355 179.991 305.355 C 179.772 305.355 179.045 305.298 178.879 305.355 C 178.719 305.411 177.854 306.671 177.688 306.901 C 176.246 308.675 174.757 310.507 173.183 312.225 C 171.518 314.056 169.582 315.488 167.578 316.92 C 161.79 321.041 155.6 323.503 148.617 324.705 C 135.837 326.881 122.888 324.133 112.309 316.633 C 102.93 309.935 95.786 299.114 93.896 287.664 C 93.129 283.084 92.705 278.275 93.175 273.637 C 93.587 269.515 94.687 265.566 96.037 261.729 C 97.033 258.867 98.047 256.119 99.792 253.657 C 91.21 247.76 84.999 239.745 82.291 229.612 C 79.378 218.734 80.419 208.142 85.961 198.295 C 86.814 196.806 87.839 195.375 88.921 194.001 C 95.172 186.101 104.436 180.547 114.506 179.346 L 113.539 175.224 C 111.454 165.548 113.442 152.838 118.898 144.48 L 122.098 140.071 C 126.901 134.231 132.735 130.453 139.795 127.876 C 141.878 127.075 144.568 126.274 146.784 126.102 L 147.203 126.045 C 147.151 116.771 147.672 108.755 152.596 100.625 C 158.675 90.549 168.145 83.393 179.606 80.701 C 182.831 79.957 186.191 79.728 189.489 79.728 C 196.364 79.728 203.417 80.93 209.354 84.652 L 209.503 84.767 L 214.433 77.954 C 222.161 69.251 232.673 64.213 244.248 63.526 C 251.467 62.782 259.356 64.213 265.873 67.42 C 272.376 70.511 277.54 74.747 281.874 80.531 C 282.853 81.847 283.924 83.106 284.439 84.652 L 284.513 84.937 C 290.044 81.961 296.324 79.957 302.628 79.785 C 307.603 79.67 313.236 80.072 318.028 81.504 C 324.257 83.393 329.96 86.999 334.631 91.464 C 340.51 97.075 345.102 105.148 346.763 113.106 C 347.65 117.4 347.77 121.693 347.85 126.045 C 349.458 126.444 351.097 126.674 352.694 127.075 C 356.008 127.992 359.238 129.308 362.106 131.197 C 371.93 137.609 378.491 146.941 381.033 158.334 C 381.898 162.227 381.857 166.292 381.657 170.3 C 381.509 173.334 381.325 176.254 380.62 179.231 L 385.252 180.203 C 395.363 183.009 403.699 189.937 408.862 199.04 C 414.198 208.429 415.223 220.279 412.252 230.643 C 410.562 236.482 407.557 242.149 403.372 246.558 C 402.079 247.931 400.589 249.191 399.148 250.394 C 398.037 251.309 396.691 252.741 395.408 253.37 C 394.87 253.657 395.415 253.314 394.836 253.714 C 396.434 255.489 397.555 258.695 398.392 260.928 L 399.926 265.622 L 400.996 270.661 C 401.403 272.207 401.437 273.809 401.54 275.355 C 402.01 282.684 400.778 289.954 398.008 296.711 C 394.87 304.438 389.673 311.137 383.031 316.117 C 373.012 323.675 359.855 326.766 347.483 324.992 C 337.351 323.503 327.331 319.096 320.134 311.653 C 318.223 309.705 316.7 307.53 315.069 305.298 C 314.015 305.012 312.069 305.469 310.923 305.583 C 310.442 307.702 310.603 310.107 310.207 312.282 C 308.988 319.096 306.161 326.366 302.598 332.262 C 296.914 341.709 289.237 350.698 279.275 355.793 C 277.833 356.537 276.235 357.453 274.655 357.796 C 274.242 357.854 274.449 357.739 274.122 358.14 C 274.993 358.77 275.342 359.458 275.84 360.431 C 276.503 361.691 276.372 363.235 276.349 364.609 C 276.315 366.499 276.246 368.445 276.222 370.391 C 276.19 373.198 276.218 376.06 276.246 378.922 C 276.298 384.418 276.682 389.743 277.019 395.182 C 277.317 400.048 277.695 405.029 278.417 409.837 C 278.88 412.929 279.435 416.021 279.996 419.113 C 280.18 420.144 280.557 421.174 280.736 422.205 C 280.976 423.635 281.399 425.239 281.846 426.613 C 283.856 432.739 285.419 438.749 288.236 444.589 C 293.393 455.295 300.361 465.371 310.214 472.299 C 313.74 474.817 317.393 476.593 321.332 478.31 C 322.809 478.997 324.24 479.685 325.768 480.199 L 326.043 480.314 L 253.313 486.494 Z M 214.461 305.469 C 214.289 307.015 214.621 308.16 214.924 309.648 C 216.322 316.461 219.797 323.274 224.131 328.713 C 229.867 335.927 237.78 342.225 246.476 345.373 L 246.866 345.316 C 246.905 342.568 246.395 339.934 246.001 337.244 C 245.371 332.893 244.736 328.599 243.842 324.305 C 243.04 320.469 242.028 316.691 241.219 312.855 C 240.716 310.451 240.613 307.644 239.864 305.355 C 234.339 305.24 228.808 305.298 223.284 305.298 C 220.426 305.298 217.278 305.068 214.461 305.411 L 214.461 305.469 Z M 265.437 305.469 L 264.613 305.527 C 264.75 306.328 265.031 307.015 265.351 307.76 L 271.099 325.393 C 271.438 326.596 271.529 327.739 271.747 328.999 C 272.205 331.519 272.72 334.151 272.937 336.728 C 273.195 339.762 273.178 342.854 273.345 345.945 C 278.627 343.026 283.636 338.56 287.439 333.866 C 292.431 328.083 296.352 320.813 298.351 313.427 C 299.066 310.736 299.399 308.046 299.766 305.355 C 291.888 305.184 283.999 305.298 276.121 305.298 C 273.858 305.355 271.603 305.355 269.342 305.355 C 268.077 305.355 266.691 305.24 265.437 305.411 L 265.437 305.469 Z M 265.437 305.469" style="fill: rgb(255, 255, 255); visibility: hidden;"/>
  <g id="Capa_1" transform="matrix(0.729335, 0, 0, 0.729335, -85.3922, 222.041)" style="">
    <g transform="matrix(1, 0, 0, 1, 172.352, -229.716)">
      <path d="M537.804,174.688c0-44.772-33.976-81.597-77.552-86.12c-12.23-32.981-43.882-56.534-81.128-56.534   c-16.304,0-31.499,4.59-44.514,12.422C319.808,17.949,291.513,0,258.991,0c-43.117,0-78.776,31.556-85.393,72.809   c-3.519-0.43-7.076-0.727-10.71-0.727c-47.822,0-86.598,38.767-86.598,86.598c0,2.343,0.172,4.638,0.354,6.933   c-24.25,15.348-40.392,42.333-40.392,73.153c0,27.244,12.604,51.513,32.273,67.387c-0.086,1.559-0.239,3.107-0.239,4.686   c0,47.822,38.767,86.598,86.598,86.598c14.334,0,27.817-3.538,39.723-9.696c16.495,11.848,40.115,26.67,51.551,23.715   c0,0,4.255,65.905,3.337,82.64c-1.75,31.843-11.303,67.291-18.025,95.979h104.117c0,0-15.348-63.954-16.018-85.307   c-0.669-21.354,6.675-60.675,6.675-60.675l36.118-37.36c13.903,9.505,30.695,14.908,48.807,14.908   c44.771,0,81.597-34.062,86.12-77.639c32.98-12.23,56.533-43.968,56.533-81.214c0-21.994-8.262-41.999-21.765-57.279   C535.71,195.926,537.804,185.561,537.804,174.688z M214.611,373.444c6.942-6.627,12.766-14.372,17.212-22.969l17.002,35.62   C248.816,386.096,239.569,390.179,214.611,373.444z M278.183,395.438c-8.798,1.597-23.782-25.494-34.416-47.517   c11.791,6.015,25.102,9.477,39.254,9.477c3.634,0,7.201-0.296,10.72-0.736C291.006,374.286,286.187,393.975,278.183,395.438z    M315.563,412.775c-20.35,5.651-8.167-36.501-2.334-60.904c4.218-1.568,8.301-3.413,12.183-5.604   c2.343,17.786,10.069,33.832,21.516,46.521C337.011,401.597,325.593,409.992,315.563,412.775z" style="fill: rgb(179, 213, 229);"/>
    </g>
  </g>
  <ellipse style="fill: rgb(31, 47, 34); fill-opacity: 0; stroke-width: 10px; stroke: rgb(27, 42, 32); pointer-events: none;" cx="250.251" cy="249.337" rx="238.617" ry="238.617">
    <title>Circle</title>
  </ellipse>
</svg>